# xmcd CD database file
#
# Track frame offsets:
#	150
#	49934
#	63782
#	69932
#	103596
#	116177
#	123427
#	144731
#	149614
#	178281
#	193331
#	218401
#	247526
#
# Disc length: 3788 seconds
#
# Revision: 4
# Processed by: cddbd v1.5.2PL0 Copyright (c) Steve Scherf et al.
# Submitted via: CDex 1.51
#
DISCID=c60eca0d
DTITLE=Meloscope - Deluxe
DYEAR=2007
DGENRE=Jazz
TTITLE0=Study No 5
TTITLE1=Monochrome
TTITLE2=Tip tap toe
TTITLE3=Recycle 1
TTITLE4=Recycle 2
TTITLE5=Silere
TTITLE6=Recycle 3
TTITLE7=Jump in
TTITLE8=Recycle 4
TTITLE9=No way back
TTITLE10=Nedome 1
TTITLE11=Nedome 2
TTITLE12=Nedome 3
EXTD=YEAR: 2007
EXTT0=
EXTT1=
EXTT2=
EXTT3=
EXTT4=
EXTT5=
EXTT6=
EXTT7=
EXTT8=
EXTT9=
EXTT10=
EXTT11=
EXTT12=
PLAYORDER=
